<svg xmlns="http://www.w3.org/2000/svg" xmlns:xlink="http://www.w3.org/1999/xlink" width="500" zoomAndPan="magnify" viewBox="0 0 375 374.999991" height="500" preserveAspectRatio="xMidYMid meet" version="1.0"><defs><g/><clipPath id="6e08b77647"><path d="M 19.800781 69 L 75 69 L 75 240.75 L 19.800781 240.75 Z M 19.800781 69 " clip-rule="nonzero"/></clipPath><clipPath id="4548369fb3"><path d="M 297.125 69.257812 L 352.042969 69.257812 L 352.042969 240.742188 L 297.125 240.742188 Z M 297.125 69.257812 " clip-rule="nonzero"/></clipPath></defs><path fill="#4a87ce" d="M 133.082031 126.101562 C 129.007812 126.101562 125.207031 126.871094 121.6875 128.410156 C 118.164062 129.949219 115.109375 132.023438 112.523438 134.636719 C 109.933594 137.25 107.882812 140.3125 106.371094 143.832031 C 104.855469 147.351562 104.101562 151.089844 104.101562 155.050781 C 104.101562 159.007812 104.855469 162.746094 106.371094 166.265625 C 107.882812 169.785156 109.933594 172.851562 112.523438 175.460938 C 115.109375 178.074219 118.164062 180.152344 121.6875 181.691406 C 125.207031 183.230469 129.007812 184 133.082031 184 C 137.097656 184 140.871094 183.230469 144.390625 181.691406 C 147.914062 180.152344 150.984375 178.058594 153.597656 175.421875 C 156.210938 172.78125 158.277344 169.71875 159.789062 166.226562 C 161.304688 162.734375 162.0625 159.007812 162.0625 155.050781 C 162.0625 151.089844 161.304688 147.367188 159.789062 143.875 C 158.277344 140.382812 156.210938 137.316406 153.597656 134.675781 C 150.984375 132.039062 147.914062 129.949219 144.390625 128.410156 C 140.871094 126.871094 137.097656 126.101562 133.082031 126.101562 Z M 179.316406 155.050781 C 179.316406 167.914062 174.800781 178.800781 165.777344 187.710938 C 156.636719 196.726562 145.738281 201.238281 133.082031 201.238281 C 120.308594 201.238281 109.410156 196.726562 100.382812 187.710938 C 91.355469 178.695312 86.84375 167.804688 86.84375 155.050781 C 86.84375 142.292969 91.355469 131.40625 100.382812 122.386719 C 109.410156 113.371094 120.308594 108.863281 133.082031 108.863281 C 145.738281 108.863281 156.636719 113.371094 165.777344 122.386719 C 170.289062 126.898438 173.660156 131.875 175.890625 137.316406 C 178.121094 142.761719 179.261719 148.671875 179.316406 155.050781 " fill-opacity="1" fill-rule="nonzero"/><path fill="#4a87ce" d="M 238.765625 126.101562 C 234.691406 126.101562 230.894531 126.871094 227.371094 128.410156 C 223.847656 129.949219 220.792969 132.023438 218.207031 134.636719 C 215.617188 137.25 213.566406 140.3125 212.054688 143.832031 C 210.539062 147.351562 209.785156 151.089844 209.785156 155.050781 C 209.785156 159.007812 210.539062 162.746094 212.054688 166.265625 C 213.566406 169.785156 215.617188 172.851562 218.207031 175.460938 C 220.792969 178.074219 223.847656 180.152344 227.371094 181.691406 C 230.894531 183.230469 234.691406 184 238.765625 184 C 242.78125 184 246.550781 183.230469 250.078125 181.691406 C 253.597656 180.152344 256.667969 178.058594 259.28125 175.421875 C 261.898438 172.78125 263.960938 169.71875 265.472656 166.226562 C 266.984375 162.734375 267.746094 159.007812 267.746094 155.050781 C 267.746094 151.089844 266.984375 147.367188 265.472656 143.875 C 263.960938 140.382812 261.898438 137.316406 259.28125 134.675781 C 256.667969 132.039062 253.597656 129.949219 250.078125 128.410156 C 246.550781 126.871094 242.78125 126.101562 238.765625 126.101562 Z M 285 155.050781 C 285 167.914062 280.488281 178.800781 271.460938 187.710938 C 262.324219 196.726562 251.421875 201.238281 238.765625 201.238281 C 225.992188 201.238281 215.09375 196.726562 206.070312 187.710938 C 197.039062 178.695312 192.527344 167.804688 192.527344 155.050781 C 192.527344 142.292969 197.039062 131.40625 206.070312 122.386719 C 215.09375 113.371094 225.992188 108.863281 238.765625 108.863281 C 251.421875 108.863281 262.324219 113.371094 271.460938 122.386719 C 275.972656 126.898438 279.34375 131.875 281.574219 137.316406 C 283.804688 142.761719 284.945312 148.671875 285 155.050781 " fill-opacity="1" fill-rule="nonzero"/><g clip-path="url(#6e08b77647)"><path fill="#211d1d" d="M 66.039062 69.355469 C 68.515625 69.355469 70.5625 70.195312 72.1875 71.871094 C 73.8125 73.550781 74.625 75.597656 74.625 78.015625 C 74.625 80.492188 73.8125 82.539062 72.1875 84.160156 C 70.5625 85.78125 68.515625 86.59375 66.039062 86.59375 C 59.210938 86.59375 55.800781 90.003906 55.800781 96.820312 L 55.800781 136.242188 C 55.800781 144.164062 53.980469 150.429688 50.347656 155.050781 C 53.980469 159.667969 55.800781 165.9375 55.800781 173.855469 L 55.800781 213.277344 C 55.800781 220.09375 59.210938 223.507812 66.039062 223.507812 C 68.515625 223.507812 70.5625 224.316406 72.1875 225.941406 C 73.8125 227.558594 74.625 229.609375 74.625 232.082031 C 74.625 234.558594 73.8125 236.621094 72.1875 238.269531 C 70.5625 239.917969 68.515625 240.742188 66.039062 240.742188 C 47.707031 240.742188 38.542969 231.589844 38.542969 213.277344 L 38.542969 173.855469 C 38.542969 167.039062 35.15625 163.625 28.386719 163.625 C 25.910156 163.625 23.859375 162.816406 22.234375 161.195312 C 20.609375 159.574219 19.800781 157.523438 19.800781 155.050781 C 19.800781 152.574219 20.609375 150.527344 22.234375 148.90625 C 23.859375 147.285156 25.910156 146.472656 28.386719 146.472656 C 35.15625 146.472656 38.542969 143.0625 38.542969 136.242188 L 38.542969 96.820312 C 38.542969 78.511719 47.707031 69.355469 66.039062 69.355469 " fill-opacity="1" fill-rule="nonzero"/></g><g clip-path="url(#4548369fb3)"><path fill="#211d1d" d="M 333.300781 96.820312 L 333.300781 136.242188 C 333.300781 143.0625 336.6875 146.472656 343.457031 146.472656 C 345.9375 146.472656 347.984375 147.285156 349.609375 148.90625 C 351.234375 150.527344 352.042969 152.574219 352.042969 155.050781 C 352.042969 157.523438 351.234375 159.574219 349.609375 161.195312 C 347.984375 162.816406 345.9375 163.625 343.457031 163.625 C 336.6875 163.625 333.300781 167.039062 333.300781 173.855469 L 333.300781 213.277344 C 333.300781 231.589844 324.136719 240.742188 305.804688 240.742188 C 303.328125 240.742188 301.28125 239.917969 299.65625 238.269531 C 298.03125 236.621094 297.222656 234.558594 297.222656 232.082031 C 297.222656 229.609375 298.03125 227.558594 299.65625 225.941406 C 301.28125 224.316406 303.328125 223.507812 305.804688 223.507812 C 312.632812 223.507812 316.046875 220.09375 316.046875 213.277344 L 316.046875 173.855469 C 316.046875 165.9375 317.863281 159.667969 321.496094 155.050781 C 317.863281 150.429688 316.046875 144.164062 316.046875 136.242188 L 316.046875 96.820312 C 316.046875 90.003906 312.632812 86.59375 305.804688 86.59375 C 303.328125 86.59375 301.28125 85.78125 299.65625 84.160156 C 298.03125 82.539062 297.222656 80.492188 297.222656 78.015625 C 297.222656 75.597656 298.03125 73.550781 299.65625 71.871094 C 301.28125 70.195312 303.328125 69.355469 305.804688 69.355469 C 324.136719 69.355469 333.300781 78.511719 333.300781 96.820312 " fill-opacity="1" fill-rule="nonzero"/></g><path fill="#211d1d" d="M 211.765625 76.195312 C 211.765625 77.625 211.488281 78.957031 210.9375 80.195312 C 210.386719 81.429688 209.660156 82.519531 208.753906 83.453125 C 207.84375 84.386719 206.753906 85.113281 205.492188 85.636719 C 204.222656 86.160156 202.902344 86.421875 201.527344 86.421875 C 198.992188 86.421875 196.820312 85.542969 195.003906 83.78125 C 193.1875 82.023438 191.703125 79.863281 190.546875 77.308594 C 189.390625 74.75 188.550781 72.109375 188.027344 69.390625 C 187.503906 66.667969 187.242188 64.125 187.242188 61.761719 C 187.242188 52.027344 191.398438 42.1875 199.710938 32.234375 C 201.195312 30.746094 202.875 30.007812 204.75 30.007812 C 206.671875 30.007812 208.324219 30.695312 209.699219 32.070312 C 211.074219 33.441406 211.765625 35.09375 211.765625 37.019531 C 211.765625 37.953125 211.570312 38.914062 211.1875 39.902344 C 208.707031 45.953125 207.472656 51.699219 207.472656 57.140625 C 207.472656 62.3125 208.597656 67.316406 210.855469 72.152344 C 211.460938 73.527344 211.765625 74.875 211.765625 76.195312 Z M 184.601562 76.195312 C 184.601562 77.625 184.324219 78.957031 183.777344 80.195312 C 183.222656 81.429688 182.496094 82.519531 181.585938 83.453125 C 180.679688 84.386719 179.59375 85.113281 178.328125 85.636719 C 177.058594 86.160156 175.738281 86.421875 174.363281 86.421875 C 171.832031 86.421875 169.65625 85.542969 167.839844 83.78125 C 166.023438 82.023438 164.539062 79.863281 163.382812 77.308594 C 162.226562 74.75 161.386719 72.109375 160.863281 69.390625 C 160.339844 66.667969 160.078125 64.125 160.078125 61.761719 C 160.078125 52.027344 164.234375 42.1875 172.546875 32.234375 C 174.03125 30.746094 175.710938 30.007812 177.582031 30.007812 C 179.507812 30.007812 181.160156 30.695312 182.535156 32.070312 C 183.914062 33.441406 184.601562 35.09375 184.601562 37.019531 C 184.601562 37.953125 184.410156 38.914062 184.023438 39.902344 C 181.546875 45.953125 180.308594 51.699219 180.308594 57.140625 C 180.308594 62.3125 181.4375 67.316406 183.691406 72.152344 C 184.296875 73.527344 184.601562 74.875 184.601562 76.195312 " fill-opacity="1" fill-rule="nonzero"/><g fill="#4a87ce" fill-opacity="1"><g transform="translate(59.890718, 287.160068)"><g><path d="M 3.59375 -31.390625 C 5.769531 -31.671875 8 -31.8125 10.28125 -31.8125 C 14.539062 -31.8125 17.773438 -30.8125 19.984375 -28.8125 C 22.203125 -26.820312 23.3125 -23.835938 23.3125 -19.859375 C 23.3125 -16.304688 22.097656 -13.5 19.671875 -11.4375 C 17.398438 -9.488281 14.484375 -8.515625 10.921875 -8.515625 C 10.515625 -8.515625 10.066406 -8.539062 9.578125 -8.59375 L 9.578125 0 L 3.59375 0 Z M 10.984375 -26.15625 C 10.515625 -26.15625 10.046875 -26.140625 9.578125 -26.109375 L 9.578125 -13.75 C 10.078125 -13.6875 10.6875 -13.65625 11.40625 -13.65625 C 12.125 -13.65625 12.875 -13.804688 13.65625 -14.109375 C 14.445312 -14.421875 15.109375 -14.851562 15.640625 -15.40625 C 16.742188 -16.539062 17.296875 -18.039062 17.296875 -19.90625 C 17.296875 -24.070312 15.191406 -26.15625 10.984375 -26.15625 Z M 10.984375 -26.15625 "/></g></g></g><g fill="#4a87ce" fill-opacity="1"><g transform="translate(83.973085, 287.160068)"><g><path d="M 6.59375 -3.703125 C 5.164062 -5.066406 4.039062 -6.703125 3.21875 -8.609375 C 2.40625 -10.523438 2 -12.617188 2 -14.890625 C 2 -17.171875 2.378906 -19.328125 3.140625 -21.359375 C 3.910156 -23.398438 5.003906 -25.191406 6.421875 -26.734375 C 7.847656 -28.285156 9.570312 -29.519531 11.59375 -30.4375 C 13.613281 -31.351562 15.875 -31.8125 18.375 -31.8125 C 22.695312 -31.8125 26.335938 -30.445312 29.296875 -27.71875 C 32.460938 -24.8125 34.046875 -20.882812 34.046875 -15.9375 C 34.046875 -11.144531 32.414062 -7.160156 29.15625 -3.984375 C 27.15625 -2.035156 24.769531 -0.691406 22 0.046875 C 20.632812 0.410156 19.039062 0.59375 17.21875 0.59375 C 15.394531 0.59375 13.523438 0.21875 11.609375 -0.53125 C 9.691406 -1.289062 8.019531 -2.347656 6.59375 -3.703125 Z M 8.515625 -15.21875 C 8.515625 -13.757812 8.757812 -12.414062 9.25 -11.1875 C 9.738281 -9.96875 10.410156 -8.921875 11.265625 -8.046875 C 13.097656 -6.203125 15.453125 -5.28125 18.328125 -5.28125 C 21.066406 -5.28125 23.269531 -6.164062 24.9375 -7.9375 C 26.625 -9.769531 27.46875 -12.265625 27.46875 -15.421875 C 27.46875 -18.398438 26.660156 -20.878906 25.046875 -22.859375 C 23.304688 -24.992188 20.925781 -26.0625 17.90625 -26.0625 C 14.976562 -26.0625 12.65625 -24.976562 10.9375 -22.8125 C 9.320312 -20.800781 8.515625 -18.269531 8.515625 -15.21875 Z M 8.515625 -15.21875 "/></g></g></g><g fill="#4a87ce" fill-opacity="1"><g transform="translate(120.002748, 287.160068)"><g><path d="M 14.125 -12.140625 C 13.65625 -12.109375 13.15625 -12.09375 12.625 -12.09375 C 12.09375 -12.09375 11.304688 -12.128906 10.265625 -12.203125 L 10.265625 0 L 4.03125 0 L 4.03125 -31.390625 C 6.226562 -31.671875 8.921875 -31.8125 12.109375 -31.8125 C 16.460938 -31.8125 19.707031 -31.007812 21.84375 -29.40625 C 23.976562 -27.800781 25.046875 -25.320312 25.046875 -21.96875 C 25.046875 -19.375 24.066406 -17.15625 22.109375 -15.3125 C 21.472656 -14.707031 20.738281 -14.1875 19.90625 -13.75 L 24.703125 -3.65625 C 25.640625 -1.582031 26.359375 -0.347656 26.859375 0.046875 L 26.734375 0.171875 C 25.222656 -0.0859375 22.835938 -0.0820312 19.578125 0.1875 Z M 12.5625 -26.265625 C 11.757812 -26.265625 10.992188 -26.226562 10.265625 -26.15625 L 10.265625 -17.1875 C 11.023438 -17.070312 11.921875 -17.015625 12.953125 -17.015625 C 13.992188 -17.015625 14.863281 -17.101562 15.5625 -17.28125 C 16.269531 -17.46875 16.878906 -17.75 17.390625 -18.125 C 18.503906 -18.957031 19.0625 -20.203125 19.0625 -21.859375 C 19.0625 -23.515625 18.484375 -24.679688 17.328125 -25.359375 C 16.242188 -25.960938 14.65625 -26.265625 12.5625 -26.265625 Z M 12.5625 -26.265625 "/></g></g></g><g fill="#4a87ce" fill-opacity="1"><g transform="translate(148.004955, 287.160068)"><g><path d="M 15.3125 0.140625 C 14.550781 0.046875 12.613281 0 9.5 0 L 8.75 0 L 8.75 -25.96875 L 4.109375 -25.96875 C 2.734375 -25.96875 1.921875 -25.894531 1.671875 -25.75 C 1.421875 -25.613281 1.222656 -25.488281 1.078125 -25.375 L 1.015625 -25.40625 L 1.015625 -31.40625 L 1.078125 -31.484375 C 1.597656 -31.304688 2.992188 -31.21875 5.265625 -31.21875 L 19.984375 -31.21875 C 21.359375 -31.21875 22.171875 -31.285156 22.421875 -31.421875 C 22.671875 -31.566406 22.863281 -31.695312 23 -31.8125 L 23.078125 -31.78125 L 23.078125 -25.78125 L 23 -25.703125 C 22.488281 -25.878906 21.097656 -25.96875 18.828125 -25.96875 L 15.3125 -25.96875 Z M 15.3125 0.140625 "/></g></g></g><g fill="#211d1d" fill-opacity="1"><g transform="translate(172.098194, 287.160068)"><g><path d="M 20.5 -13.5 C 19.75 -13.570312 18.773438 -13.609375 17.578125 -13.609375 L 10.46875 -13.609375 L 10.46875 0 L 4.03125 0 L 4.03125 -31.390625 C 4.457031 -31.359375 4.945312 -31.332031 5.5 -31.3125 L 7.234375 -31.265625 C 8.421875 -31.234375 9.65625 -31.21875 10.9375 -31.21875 C 14.789062 -31.21875 18.46875 -31.28125 21.96875 -31.40625 C 21.800781 -30.03125 21.71875 -28.191406 21.71875 -25.890625 C 21.71875 -25.640625 21.734375 -25.453125 21.765625 -25.328125 L 21.71875 -25.265625 C 20.882812 -25.492188 19.722656 -25.609375 18.234375 -25.609375 L 10.46875 -25.609375 L 10.46875 -19.15625 L 17.328125 -19.15625 C 19.046875 -19.15625 20.078125 -19.203125 20.421875 -19.296875 Z M 20.5 -13.5 "/></g></g></g><g fill="#211d1d" fill-opacity="1"><g transform="translate(196.086673, 287.160068)"><g><path d="M 6.59375 -3.703125 C 5.164062 -5.066406 4.039062 -6.703125 3.21875 -8.609375 C 2.40625 -10.523438 2 -12.617188 2 -14.890625 C 2 -17.171875 2.378906 -19.328125 3.140625 -21.359375 C 3.910156 -23.398438 5.003906 -25.191406 6.421875 -26.734375 C 7.847656 -28.285156 9.570312 -29.519531 11.59375 -30.4375 C 13.613281 -31.351562 15.875 -31.8125 18.375 -31.8125 C 22.695312 -31.8125 26.335938 -30.445312 29.296875 -27.71875 C 32.460938 -24.8125 34.046875 -20.882812 34.046875 -15.9375 C 34.046875 -11.144531 32.414062 -7.160156 29.15625 -3.984375 C 27.15625 -2.035156 24.769531 -0.691406 22 0.046875 C 20.632812 0.410156 19.039062 0.59375 17.21875 0.59375 C 15.394531 0.59375 13.523438 0.21875 11.609375 -0.53125 C 9.691406 -1.289062 8.019531 -2.347656 6.59375 -3.703125 Z M 8.515625 -15.21875 C 8.515625 -13.757812 8.757812 -12.414062 9.25 -11.1875 C 9.738281 -9.96875 10.410156 -8.921875 11.265625 -8.046875 C 13.097656 -6.203125 15.453125 -5.28125 18.328125 -5.28125 C 21.066406 -5.28125 23.269531 -6.164062 24.9375 -7.9375 C 26.625 -9.769531 27.46875 -12.265625 27.46875 -15.421875 C 27.46875 -18.398438 26.660156 -20.878906 25.046875 -22.859375 C 23.304688 -24.992188 20.925781 -26.0625 17.90625 -26.0625 C 14.976562 -26.0625 12.65625 -24.976562 10.9375 -22.8125 C 9.320312 -20.800781 8.515625 -18.269531 8.515625 -15.21875 Z M 8.515625 -15.21875 "/></g></g></g><g fill="#211d1d" fill-opacity="1"><g transform="translate(232.116336, 287.160068)"><g><path d="M 8.609375 0 C 6.316406 0 4.789062 0.046875 4.03125 0.140625 L 4.03125 -31.359375 C 4.40625 -31.265625 5.179688 -31.21875 6.359375 -31.21875 C 7.546875 -31.21875 8.925781 -31.25 10.5 -31.3125 L 10.5 -5.640625 L 15.359375 -5.640625 C 16.765625 -5.640625 17.890625 -5.6875 18.734375 -5.78125 C 18.617188 -2.113281 18.5625 -0.210938 18.5625 -0.078125 L 18.5625 0.171875 C 17.03125 0.0546875 14.457031 0 10.84375 0 Z M 8.609375 0 "/></g></g></g><g fill="#211d1d" fill-opacity="1"><g transform="translate(252.184976, 287.160068)"><g><path d="M 4.765625 -31.3125 C 6.328125 -31.25 7.273438 -31.21875 7.609375 -31.21875 L 9.296875 -31.21875 C 10.128906 -31.21875 10.796875 -31.28125 11.296875 -31.40625 L 11.265625 0 L 4.765625 0 Z M 4.765625 -31.3125 "/></g></g></g><g fill="#211d1d" fill-opacity="1"><g transform="translate(268.239887, 287.160068)"><g><path d="M 6.59375 -3.703125 C 5.164062 -5.066406 4.039062 -6.703125 3.21875 -8.609375 C 2.40625 -10.523438 2 -12.617188 2 -14.890625 C 2 -17.171875 2.378906 -19.328125 3.140625 -21.359375 C 3.910156 -23.398438 5.003906 -25.191406 6.421875 -26.734375 C 7.847656 -28.285156 9.570312 -29.519531 11.59375 -30.4375 C 13.613281 -31.351562 15.875 -31.8125 18.375 -31.8125 C 22.695312 -31.8125 26.335938 -30.445312 29.296875 -27.71875 C 32.460938 -24.8125 34.046875 -20.882812 34.046875 -15.9375 C 34.046875 -11.144531 32.414062 -7.160156 29.15625 -3.984375 C 27.15625 -2.035156 24.769531 -0.691406 22 0.046875 C 20.632812 0.410156 19.039062 0.59375 17.21875 0.59375 C 15.394531 0.59375 13.523438 0.21875 11.609375 -0.53125 C 9.691406 -1.289062 8.019531 -2.347656 6.59375 -3.703125 Z M 8.515625 -15.21875 C 8.515625 -13.757812 8.757812 -12.414062 9.25 -11.1875 C 9.738281 -9.96875 10.410156 -8.921875 11.265625 -8.046875 C 13.097656 -6.203125 15.453125 -5.28125 18.328125 -5.28125 C 21.066406 -5.28125 23.269531 -6.164062 24.9375 -7.9375 C 26.625 -9.769531 27.46875 -12.265625 27.46875 -15.421875 C 27.46875 -18.398438 26.660156 -20.878906 25.046875 -22.859375 C 23.304688 -24.992188 20.925781 -26.0625 17.90625 -26.0625 C 14.976562 -26.0625 12.65625 -24.976562 10.9375 -22.8125 C 9.320312 -20.800781 8.515625 -18.269531 8.515625 -15.21875 Z M 8.515625 -15.21875 "/></g></g></g><g fill="#737373" fill-opacity="1"><g transform="translate(98.768367, 309.759101)"><g><path d="M 4.734375 -6.34375 L 4.734375 -5.140625 L 2 -5.140625 L 2 0 L 0.671875 0 L 0.671875 -11.875 L 5.390625 -11.875 L 5.390625 -10.65625 L 2 -10.65625 L 2 -6.34375 Z M 4.734375 -6.34375 "/></g></g></g><g fill="#737373" fill-opacity="1"><g transform="translate(111.317225, 309.759101)"><g><path d="M 1.9375 -2.796875 C 1.9375 -2.253906 2.046875 -1.832031 2.265625 -1.53125 C 2.484375 -1.226562 2.835938 -1.078125 3.328125 -1.078125 C 3.796875 -1.078125 4.140625 -1.226562 4.359375 -1.53125 C 4.585938 -1.832031 4.703125 -2.253906 4.703125 -2.796875 L 4.703125 -11.875 L 5.9375 -11.875 L 5.9375 -2.859375 C 5.9375 -1.960938 5.71875 -1.238281 5.28125 -0.6875 C 4.851562 -0.132812 4.179688 0.140625 3.265625 0.140625 C 2.367188 0.140625 1.703125 -0.132812 1.265625 -0.6875 C 0.835938 -1.238281 0.625 -1.960938 0.625 -2.859375 L 0.625 -11.875 L 1.9375 -11.875 Z M 1.9375 -2.796875 "/></g></g></g><g fill="#737373" fill-opacity="1"><g transform="translate(124.662811, 309.759101)"><g><path d="M 1.84375 0 L 0.65625 0 L 0.65625 -11.875 L 2.34375 -11.875 L 5.09375 -3.28125 L 5.09375 -11.875 L 6.25 -11.875 L 6.25 0 L 4.875 0 L 1.84375 -9.59375 Z M 1.84375 0 "/></g></g></g><g fill="#737373" fill-opacity="1"><g transform="translate(138.381318, 309.759101)"><g><path d="M 3.234375 -11.984375 C 4.148438 -11.984375 4.828125 -11.710938 5.265625 -11.171875 C 5.703125 -10.628906 5.921875 -9.90625 5.921875 -9 L 5.921875 -7.9375 L 4.65625 -7.9375 L 4.65625 -9.0625 C 4.65625 -9.613281 4.546875 -10.035156 4.328125 -10.328125 C 4.109375 -10.628906 3.753906 -10.78125 3.265625 -10.78125 C 2.796875 -10.78125 2.445312 -10.628906 2.21875 -10.328125 C 1.988281 -10.035156 1.875 -9.613281 1.875 -9.0625 L 1.875 -2.796875 C 1.875 -2.253906 1.988281 -1.832031 2.21875 -1.53125 C 2.445312 -1.226562 2.796875 -1.078125 3.265625 -1.078125 C 3.753906 -1.078125 4.109375 -1.226562 4.328125 -1.53125 C 4.546875 -1.832031 4.65625 -2.253906 4.65625 -2.796875 L 4.65625 -4.34375 L 5.921875 -4.34375 L 5.921875 -2.859375 C 5.921875 -1.960938 5.703125 -1.238281 5.265625 -0.6875 C 4.828125 -0.144531 4.148438 0.125 3.234375 0.125 C 2.328125 0.125 1.65625 -0.144531 1.21875 -0.6875 C 0.789062 -1.238281 0.578125 -1.960938 0.578125 -2.859375 L 0.578125 -9 C 0.578125 -9.457031 0.628906 -9.867188 0.734375 -10.234375 C 0.847656 -10.597656 1.015625 -10.910156 1.234375 -11.171875 C 1.453125 -11.429688 1.726562 -11.628906 2.0625 -11.765625 C 2.394531 -11.910156 2.785156 -11.984375 3.234375 -11.984375 Z M 3.234375 -11.984375 "/></g></g></g><g fill="#737373" fill-opacity="1"><g transform="translate(151.60824, 309.759101)"><g><path d="M 2.390625 0 L 2.390625 -10.65625 L 0.203125 -10.65625 L 0.203125 -11.875 L 5.875 -11.875 L 5.875 -10.65625 L 3.703125 -10.65625 L 3.703125 0 Z M 2.390625 0 "/></g></g></g><g fill="#737373" fill-opacity="1"><g transform="translate(164.496139, 309.759101)"><g><path d="M 2 -11.875 L 2 0 L 0.671875 0 L 0.671875 -11.875 Z M 2 -11.875 "/></g></g></g><g fill="#737373" fill-opacity="1"><g transform="translate(173.959849, 309.759101)"><g><path d="M 0.578125 -9 C 0.578125 -9.914062 0.800781 -10.640625 1.25 -11.171875 C 1.695312 -11.710938 2.375 -11.984375 3.28125 -11.984375 C 4.195312 -11.984375 4.878906 -11.710938 5.328125 -11.171875 C 5.785156 -10.640625 6.015625 -9.914062 6.015625 -9 L 6.015625 -2.859375 C 6.015625 -1.960938 5.785156 -1.238281 5.328125 -0.6875 C 4.878906 -0.144531 4.195312 0.125 3.28125 0.125 C 2.375 0.125 1.695312 -0.144531 1.25 -0.6875 C 0.800781 -1.238281 0.578125 -1.960938 0.578125 -2.859375 Z M 1.875 -2.796875 C 1.875 -2.253906 1.988281 -1.832031 2.21875 -1.53125 C 2.457031 -1.226562 2.8125 -1.078125 3.28125 -1.078125 C 3.769531 -1.078125 4.128906 -1.226562 4.359375 -1.53125 C 4.585938 -1.832031 4.703125 -2.253906 4.703125 -2.796875 L 4.703125 -9.0625 C 4.703125 -9.613281 4.585938 -10.035156 4.359375 -10.328125 C 4.128906 -10.628906 3.769531 -10.78125 3.28125 -10.78125 C 2.8125 -10.78125 2.457031 -10.628906 2.21875 -10.328125 C 1.988281 -10.035156 1.875 -9.613281 1.875 -9.0625 Z M 1.875 -2.796875 "/></g></g></g><g fill="#737373" fill-opacity="1"><g transform="translate(187.339339, 309.759101)"><g><path d="M 1.84375 0 L 0.65625 0 L 0.65625 -11.875 L 2.34375 -11.875 L 5.09375 -3.28125 L 5.09375 -11.875 L 6.25 -11.875 L 6.25 0 L 4.875 0 L 1.84375 -9.59375 Z M 1.84375 0 "/></g></g></g><g fill="#737373" fill-opacity="1"><g transform="translate(201.057851, 309.759101)"><g/></g></g><g fill="#737373" fill-opacity="1"><g transform="translate(210.470716, 309.759101)"><g><path d="M 0.671875 0 L 0.671875 -11.875 L 2 -11.875 L 2 -1.203125 L 5.390625 -1.203125 L 5.390625 0 Z M 0.671875 0 "/></g></g></g><g fill="#737373" fill-opacity="1"><g transform="translate(222.968732, 309.759101)"><g><path d="M 2 -11.875 L 2 0 L 0.671875 0 L 0.671875 -11.875 Z M 2 -11.875 "/></g></g></g><g fill="#737373" fill-opacity="1"><g transform="translate(232.432442, 309.759101)"><g><path d="M 4.734375 -6.34375 L 4.734375 -5.140625 L 2 -5.140625 L 2 0 L 0.671875 0 L 0.671875 -11.875 L 5.390625 -11.875 L 5.390625 -10.65625 L 2 -10.65625 L 2 -6.34375 Z M 4.734375 -6.34375 "/></g></g></g><g fill="#737373" fill-opacity="1"><g transform="translate(244.981302, 309.759101)"><g><path d="M 4.90625 -6.609375 L 4.90625 -5.421875 L 2 -5.421875 L 2 -1.203125 L 5.5625 -1.203125 L 5.5625 0 L 0.671875 0 L 0.671875 -11.875 L 5.5625 -11.875 L 5.5625 -10.65625 L 2 -10.65625 L 2 -6.609375 Z M 4.90625 -6.609375 "/></g></g></g><g fill="#737373" fill-opacity="1"><g transform="translate(257.869202, 309.759101)"><g><path d="M 3.28125 -10.78125 C 2.820312 -10.78125 2.503906 -10.65625 2.328125 -10.40625 C 2.148438 -10.15625 2.0625 -9.769531 2.0625 -9.25 L 2.0625 -2.609375 C 2.0625 -2.085938 2.144531 -1.703125 2.3125 -1.453125 C 2.488281 -1.203125 2.8125 -1.078125 3.28125 -1.078125 L 3.671875 -1.078125 L 3.671875 0 L 3.203125 0 C 2.296875 0 1.660156 -0.207031 1.296875 -0.625 C 0.941406 -1.050781 0.765625 -1.710938 0.765625 -2.609375 L 0.765625 -9.25 C 0.765625 -10.144531 0.941406 -10.804688 1.296875 -11.234375 C 1.660156 -11.660156 2.296875 -11.875 3.203125 -11.875 L 3.671875 -11.875 L 3.671875 -10.78125 Z M 3.28125 -10.78125 "/></g></g></g><g fill="#737373" fill-opacity="1"><g transform="translate(268.739869, 309.759101)"><g><path d="M 0.875 -11.875 C 1.78125 -11.875 2.414062 -11.660156 2.78125 -11.234375 C 3.144531 -10.804688 3.328125 -10.144531 3.328125 -9.25 L 3.328125 -2.609375 C 3.328125 -1.710938 3.144531 -1.050781 2.78125 -0.625 C 2.414062 -0.207031 1.78125 0 0.875 0 L 0.40625 0 L 0.40625 -1.078125 L 0.796875 -1.078125 C 1.273438 -1.078125 1.597656 -1.203125 1.765625 -1.453125 C 1.929688 -1.703125 2.015625 -2.085938 2.015625 -2.609375 L 2.015625 -9.25 C 2.015625 -9.769531 1.925781 -10.15625 1.75 -10.40625 C 1.570312 -10.65625 1.253906 -10.78125 0.796875 -10.78125 L 0.40625 -10.78125 L 0.40625 -11.875 Z M 0.875 -11.875 "/></g></g></g><g fill="#737373" fill-opacity="1"><g transform="translate(92.786619, 332.890937)"><g><path d="M 3.625 -10.78125 C 3.257812 -10.78125 3.015625 -10.675781 2.890625 -10.46875 C 2.765625 -10.257812 2.6875 -9.929688 2.65625 -9.484375 L 2.5625 -7.5625 C 2.550781 -7.382812 2.53125 -7.207031 2.5 -7.03125 C 2.46875 -6.863281 2.410156 -6.707031 2.328125 -6.5625 C 2.253906 -6.425781 2.144531 -6.300781 2 -6.1875 C 1.863281 -6.070312 1.679688 -5.988281 1.453125 -5.9375 C 1.679688 -5.875 1.863281 -5.785156 2 -5.671875 C 2.144531 -5.566406 2.253906 -5.441406 2.328125 -5.296875 C 2.410156 -5.160156 2.46875 -5.003906 2.5 -4.828125 C 2.53125 -4.660156 2.550781 -4.488281 2.5625 -4.3125 L 2.65625 -2.390625 C 2.6875 -1.941406 2.765625 -1.609375 2.890625 -1.390625 C 3.015625 -1.179688 3.257812 -1.078125 3.625 -1.078125 L 3.953125 -1.078125 L 3.953125 0 L 3.171875 0 C 2.628906 0 2.222656 -0.15625 1.953125 -0.46875 C 1.679688 -0.789062 1.519531 -1.238281 1.46875 -1.8125 L 1.359375 -4.125 C 1.335938 -4.539062 1.265625 -4.84375 1.140625 -5.03125 C 1.023438 -5.226562 0.757812 -5.34375 0.34375 -5.375 L 0.34375 -6.5 C 0.757812 -6.53125 1.023438 -6.640625 1.140625 -6.828125 C 1.265625 -7.023438 1.335938 -7.332031 1.359375 -7.75 L 1.46875 -10.046875 C 1.519531 -10.628906 1.679688 -11.078125 1.953125 -11.390625 C 2.222656 -11.710938 2.628906 -11.875 3.171875 -11.875 L 3.953125 -11.875 L 3.953125 -10.78125 Z M 3.625 -10.78125 "/></g></g></g><g fill="#737373" fill-opacity="1"><g transform="translate(103.928528, 332.890937)"><g/></g></g><g fill="#737373" fill-opacity="1"><g transform="translate(113.341391, 332.890937)"><g><path d="M 3.328125 -11.875 C 4.265625 -11.875 4.9375 -11.640625 5.34375 -11.171875 C 5.757812 -10.710938 5.96875 -10.039062 5.96875 -9.15625 L 5.96875 -8.1875 C 5.96875 -7.53125 5.847656 -7 5.609375 -6.59375 C 5.367188 -6.1875 5 -5.90625 4.5 -5.75 C 5.039062 -5.59375 5.421875 -5.300781 5.640625 -4.875 C 5.867188 -4.445312 5.984375 -3.910156 5.984375 -3.265625 L 5.984375 -1.421875 C 5.984375 -1.160156 5.992188 -0.910156 6.015625 -0.671875 C 6.035156 -0.429688 6.101562 -0.207031 6.21875 0 L 4.875 0 C 4.800781 -0.164062 4.742188 -0.347656 4.703125 -0.546875 C 4.671875 -0.742188 4.65625 -1.039062 4.65625 -1.4375 L 4.65625 -3.3125 C 4.65625 -3.976562 4.503906 -4.4375 4.203125 -4.6875 C 3.910156 -4.9375 3.488281 -5.0625 2.9375 -5.0625 L 2 -5.0625 L 2 0 L 0.671875 0 L 0.671875 -11.875 Z M 2.984375 -6.265625 C 3.515625 -6.265625 3.925781 -6.375 4.21875 -6.59375 C 4.507812 -6.820312 4.65625 -7.257812 4.65625 -7.90625 L 4.65625 -9.03125 C 4.65625 -9.570312 4.550781 -9.976562 4.34375 -10.25 C 4.132812 -10.519531 3.78125 -10.65625 3.28125 -10.65625 L 2 -10.65625 L 2 -6.265625 Z M 2.984375 -6.265625 "/></g></g></g><g fill="#737373" fill-opacity="1"><g transform="translate(126.805625, 332.890937)"><g><path d="M 4.90625 -6.609375 L 4.90625 -5.421875 L 2 -5.421875 L 2 -1.203125 L 5.5625 -1.203125 L 5.5625 0 L 0.671875 0 L 0.671875 -11.875 L 5.5625 -11.875 L 5.5625 -10.65625 L 2 -10.65625 L 2 -6.609375 Z M 4.90625 -6.609375 "/></g></g></g><g fill="#737373" fill-opacity="1"><g transform="translate(139.693523, 332.890937)"><g><path d="M 2.390625 0 L 2.390625 -10.65625 L 0.203125 -10.65625 L 0.203125 -11.875 L 5.875 -11.875 L 5.875 -10.65625 L 3.703125 -10.65625 L 3.703125 0 Z M 2.390625 0 "/></g></g></g><g fill="#737373" fill-opacity="1"><g transform="translate(152.581423, 332.890937)"><g><path d="M 1.9375 -2.796875 C 1.9375 -2.253906 2.046875 -1.832031 2.265625 -1.53125 C 2.484375 -1.226562 2.835938 -1.078125 3.328125 -1.078125 C 3.796875 -1.078125 4.140625 -1.226562 4.359375 -1.53125 C 4.585938 -1.832031 4.703125 -2.253906 4.703125 -2.796875 L 4.703125 -11.875 L 5.9375 -11.875 L 5.9375 -2.859375 C 5.9375 -1.960938 5.71875 -1.238281 5.28125 -0.6875 C 4.851562 -0.132812 4.179688 0.140625 3.265625 0.140625 C 2.367188 0.140625 1.703125 -0.132812 1.265625 -0.6875 C 0.835938 -1.238281 0.625 -1.960938 0.625 -2.859375 L 0.625 -11.875 L 1.9375 -11.875 Z M 1.9375 -2.796875 "/></g></g></g><g fill="#737373" fill-opacity="1"><g transform="translate(165.92701, 332.890937)"><g><path d="M 3.328125 -11.875 C 4.265625 -11.875 4.9375 -11.640625 5.34375 -11.171875 C 5.757812 -10.710938 5.96875 -10.039062 5.96875 -9.15625 L 5.96875 -8.1875 C 5.96875 -7.53125 5.847656 -7 5.609375 -6.59375 C 5.367188 -6.1875 5 -5.90625 4.5 -5.75 C 5.039062 -5.59375 5.421875 -5.300781 5.640625 -4.875 C 5.867188 -4.445312 5.984375 -3.910156 5.984375 -3.265625 L 5.984375 -1.421875 C 5.984375 -1.160156 5.992188 -0.910156 6.015625 -0.671875 C 6.035156 -0.429688 6.101562 -0.207031 6.21875 0 L 4.875 0 C 4.800781 -0.164062 4.742188 -0.347656 4.703125 -0.546875 C 4.671875 -0.742188 4.65625 -1.039062 4.65625 -1.4375 L 4.65625 -3.3125 C 4.65625 -3.976562 4.503906 -4.4375 4.203125 -4.6875 C 3.910156 -4.9375 3.488281 -5.0625 2.9375 -5.0625 L 2 -5.0625 L 2 0 L 0.671875 0 L 0.671875 -11.875 Z M 2.984375 -6.265625 C 3.515625 -6.265625 3.925781 -6.375 4.21875 -6.59375 C 4.507812 -6.820312 4.65625 -7.257812 4.65625 -7.90625 L 4.65625 -9.03125 C 4.65625 -9.570312 4.550781 -9.976562 4.34375 -10.25 C 4.132812 -10.519531 3.78125 -10.65625 3.28125 -10.65625 L 2 -10.65625 L 2 -6.265625 Z M 2.984375 -6.265625 "/></g></g></g><g fill="#737373" fill-opacity="1"><g transform="translate(179.391247, 332.890937)"><g><path d="M 1.84375 0 L 0.65625 0 L 0.65625 -11.875 L 2.34375 -11.875 L 5.09375 -3.28125 L 5.09375 -11.875 L 6.25 -11.875 L 6.25 0 L 4.875 0 L 1.84375 -9.59375 Z M 1.84375 0 "/></g></g></g><g fill="#737373" fill-opacity="1"><g transform="translate(193.109759, 332.890937)"><g/></g></g><g fill="#737373" fill-opacity="1"><g transform="translate(202.522624, 332.890937)"><g><path d="M 3.234375 -11.984375 C 4.148438 -11.984375 4.828125 -11.710938 5.265625 -11.171875 C 5.703125 -10.628906 5.921875 -9.90625 5.921875 -9 L 5.921875 -7.9375 L 4.65625 -7.9375 L 4.65625 -9.0625 C 4.65625 -9.613281 4.546875 -10.035156 4.328125 -10.328125 C 4.109375 -10.628906 3.753906 -10.78125 3.265625 -10.78125 C 2.796875 -10.78125 2.445312 -10.628906 2.21875 -10.328125 C 1.988281 -10.035156 1.875 -9.613281 1.875 -9.0625 L 1.875 -2.796875 C 1.875 -2.253906 1.988281 -1.832031 2.21875 -1.53125 C 2.445312 -1.226562 2.796875 -1.078125 3.265625 -1.078125 C 3.753906 -1.078125 4.109375 -1.226562 4.328125 -1.53125 C 4.546875 -1.832031 4.65625 -2.253906 4.65625 -2.796875 L 4.65625 -4.34375 L 5.921875 -4.34375 L 5.921875 -2.859375 C 5.921875 -1.960938 5.703125 -1.238281 5.265625 -0.6875 C 4.828125 -0.144531 4.148438 0.125 3.234375 0.125 C 2.328125 0.125 1.65625 -0.144531 1.21875 -0.6875 C 0.789062 -1.238281 0.578125 -1.960938 0.578125 -2.859375 L 0.578125 -9 C 0.578125 -9.457031 0.628906 -9.867188 0.734375 -10.234375 C 0.847656 -10.597656 1.015625 -10.910156 1.234375 -11.171875 C 1.453125 -11.429688 1.726562 -11.628906 2.0625 -11.765625 C 2.394531 -11.910156 2.785156 -11.984375 3.234375 -11.984375 Z M 3.234375 -11.984375 "/></g></g></g><g fill="#737373" fill-opacity="1"><g transform="translate(215.749546, 332.890937)"><g><path d="M 0.578125 -9 C 0.578125 -9.914062 0.800781 -10.640625 1.25 -11.171875 C 1.695312 -11.710938 2.375 -11.984375 3.28125 -11.984375 C 4.195312 -11.984375 4.878906 -11.710938 5.328125 -11.171875 C 5.785156 -10.640625 6.015625 -9.914062 6.015625 -9 L 6.015625 -2.859375 C 6.015625 -1.960938 5.785156 -1.238281 5.328125 -0.6875 C 4.878906 -0.144531 4.195312 0.125 3.28125 0.125 C 2.375 0.125 1.695312 -0.144531 1.25 -0.6875 C 0.800781 -1.238281 0.578125 -1.960938 0.578125 -2.859375 Z M 1.875 -2.796875 C 1.875 -2.253906 1.988281 -1.832031 2.21875 -1.53125 C 2.457031 -1.226562 2.8125 -1.078125 3.28125 -1.078125 C 3.769531 -1.078125 4.128906 -1.226562 4.359375 -1.53125 C 4.585938 -1.832031 4.703125 -2.253906 4.703125 -2.796875 L 4.703125 -9.0625 C 4.703125 -9.613281 4.585938 -10.035156 4.359375 -10.328125 C 4.128906 -10.628906 3.769531 -10.78125 3.28125 -10.78125 C 2.8125 -10.78125 2.457031 -10.628906 2.21875 -10.328125 C 1.988281 -10.035156 1.875 -9.613281 1.875 -9.0625 Z M 1.875 -2.796875 "/></g></g></g><g fill="#737373" fill-opacity="1"><g transform="translate(229.129036, 332.890937)"><g><path d="M 3.453125 -11.875 C 4.378906 -11.875 5.0625 -11.609375 5.5 -11.078125 C 5.9375 -10.554688 6.15625 -9.835938 6.15625 -8.921875 L 6.15625 -2.9375 C 6.15625 -2.019531 5.9375 -1.300781 5.5 -0.78125 C 5.0625 -0.257812 4.378906 0 3.453125 0 L 0.671875 0 L 0.671875 -11.875 Z M 3.4375 -1.203125 C 3.914062 -1.203125 4.269531 -1.34375 4.5 -1.625 C 4.726562 -1.914062 4.84375 -2.332031 4.84375 -2.875 L 4.84375 -8.984375 C 4.84375 -9.523438 4.726562 -9.9375 4.5 -10.21875 C 4.269531 -10.507812 3.910156 -10.65625 3.421875 -10.65625 L 2 -10.65625 L 2 -1.203125 Z M 3.4375 -1.203125 "/></g></g></g><g fill="#737373" fill-opacity="1"><g transform="translate(242.627166, 332.890937)"><g><path d="M 4.90625 -6.609375 L 4.90625 -5.421875 L 2 -5.421875 L 2 -1.203125 L 5.5625 -1.203125 L 5.5625 0 L 0.671875 0 L 0.671875 -11.875 L 5.5625 -11.875 L 5.5625 -10.65625 L 2 -10.65625 L 2 -6.609375 Z M 4.90625 -6.609375 "/></g></g></g><g fill="#737373" fill-opacity="1"><g transform="translate(255.515057, 332.890937)"><g><path d="M 2.03125 -8.109375 L 2.03125 -6.453125 L 0.765625 -6.453125 L 0.765625 -8.109375 Z M 1.25 0 L 0.765625 0 L 0.765625 -1.640625 L 2.03125 -1.640625 L 2.03125 -0.125 L 1.375 1.484375 L 0.828125 1.484375 Z M 1.25 0 "/></g></g></g><g fill="#737373" fill-opacity="1"><g transform="translate(265.012677, 332.890937)"><g/></g></g><g fill="#737373" fill-opacity="1"><g transform="translate(274.425534, 332.890937)"><g><path d="M 1.1875 -11.875 C 1.71875 -11.875 2.117188 -11.710938 2.390625 -11.390625 C 2.671875 -11.078125 2.828125 -10.628906 2.859375 -10.046875 L 3 -7.75 C 3.007812 -7.539062 3.03125 -7.359375 3.0625 -7.203125 C 3.09375 -7.054688 3.140625 -6.929688 3.203125 -6.828125 C 3.273438 -6.722656 3.375 -6.644531 3.5 -6.59375 C 3.632812 -6.539062 3.800781 -6.507812 4 -6.5 L 4 -5.375 C 3.800781 -5.351562 3.632812 -5.316406 3.5 -5.265625 C 3.375 -5.210938 3.273438 -5.132812 3.203125 -5.03125 C 3.140625 -4.925781 3.09375 -4.796875 3.0625 -4.640625 C 3.03125 -4.492188 3.007812 -4.320312 3 -4.125 L 2.859375 -1.8125 C 2.828125 -1.238281 2.671875 -0.789062 2.390625 -0.46875 C 2.117188 -0.15625 1.71875 0 1.1875 0 L 0.40625 0 L 0.40625 -1.078125 L 0.734375 -1.078125 C 1.085938 -1.078125 1.328125 -1.179688 1.453125 -1.390625 C 1.585938 -1.609375 1.671875 -1.941406 1.703125 -2.390625 L 1.796875 -4.3125 C 1.804688 -4.488281 1.828125 -4.660156 1.859375 -4.828125 C 1.890625 -5.003906 1.941406 -5.160156 2.015625 -5.296875 C 2.097656 -5.441406 2.207031 -5.566406 2.34375 -5.671875 C 2.488281 -5.785156 2.675781 -5.875 2.90625 -5.9375 C 2.675781 -5.988281 2.488281 -6.070312 2.34375 -6.1875 C 2.207031 -6.300781 2.097656 -6.425781 2.015625 -6.5625 C 1.941406 -6.707031 1.890625 -6.863281 1.859375 -7.03125 C 1.828125 -7.207031 1.804688 -7.382812 1.796875 -7.5625 L 1.703125 -9.484375 C 1.671875 -9.929688 1.585938 -10.257812 1.453125 -10.46875 C 1.328125 -10.675781 1.085938 -10.78125 0.734375 -10.78125 L 0.40625 -10.78125 L 0.40625 -11.875 Z M 1.1875 -11.875 "/></g></g></g></svg>